<?xml version="1.0" encoding="UTF-8"?>
<svg width="92px" height="92px" viewBox="0 0 92 92" version="1.1" xmlns="http://www.w3.org/2000/svg" xmlns:xlink="http://www.w3.org/1999/xlink">
    <!-- Generator: Sketch 44.1 (41455) - http://www.bohemiancoding.com/sketch -->
    <title>Artboard 3 Copy 3</title>
    <desc>Created with Sketch.</desc>
    <defs></defs>
    <g id="Page-1" stroke="none" stroke-width="1" fill="none" fill-rule="evenodd">
        <g id="Artboard-3-Copy-3" fill-rule="nonzero" fill="#FFFFFF">
            <g id="icons8-Castle" transform="translate(0.000000, 3.000000)">
                <path d="M45,0.52256998 L32.4795805,18.3816964 L24.5454545,18.3816964 L24.5454545,30.6361607 C24.5454545,31.7027525 24.9368093,32.7901075 25.708007,33.5601596 C26.4792068,34.3302097 27.5681823,34.7209821 28.6363636,34.7209821 L28.6363636,40.8482143 L28.6363636,42.890625 L28.6363636,44.9330357 L26.5909091,44.9330357 L26.5909091,40.8482143 L14.3181818,40.8482143 L14.3181818,44.9330357 L12.2727273,44.9330357 L12.2727273,40.8482143 L0,40.8482143 L0,53.1026786 C0,54.1692704 0.391354568,55.2566253 1.16255332,56.0266775 C1.93375207,56.7967276 3.02272732,57.1875 4.09090909,57.1875 L4.09090909,85.78125 L30.6818182,85.78125 L34.7727273,85.78125 L57.2727273,85.78125 L59.3181818,85.78125 L85.9090909,85.78125 L85.9090909,57.1875 C86.9772723,57.1875 88.0662477,56.7967276 88.8374475,56.0266775 C89.6086452,55.2566253 90,54.1692704 90,53.1026786 L90,40.8482143 L77.7272727,40.8482143 L77.7272727,42.890625 L77.7272727,44.9330357 L75.6818182,44.9330357 L75.6818182,40.8482143 L63.4090909,40.8482143 L63.4090909,44.9330357 L61.3636364,44.9330357 L61.3636364,40.8482143 L61.3636364,34.7209821 C62.4318177,34.7209821 63.5207932,34.3302097 64.291993,33.5601596 C65.0631907,32.7901075 65.4545455,31.7027525 65.4545455,30.6361607 L65.4545455,18.3816964 L57.5204195,18.3816964 L45,0.52256998 Z M45,7.64707288 L53.1818182,19.3191303 L53.1818182,20.4241071 L53.1818182,22.4665179 L51.1363636,22.4665179 L51.1363636,18.3816964 L38.8636364,18.3816964 L38.8636364,22.4665179 L36.8181818,22.4665179 L36.8181818,19.3191303 L45,7.64707288 Z M28.6363636,22.4665179 L32.7272727,22.4665179 L32.7272727,26.5513393 L42.9545455,26.5513393 L42.9545455,22.4665179 L47.0454545,22.4665179 L47.0454545,26.5513393 L57.2727273,26.5513393 L57.2727273,22.4665179 L61.3636364,22.4665179 L61.3636364,30.6361607 L28.6363636,30.6361607 L28.6363636,22.4665179 Z M32.7272727,34.7209821 L57.2727273,34.7209821 L57.2727273,40.8482143 L49.0909091,40.8482143 L49.0909091,53.1026786 C49.0909091,54.1692704 49.4822639,55.2566253 50.2534616,56.0266775 C51.0246614,56.7967276 52.1136368,57.1875 53.1818182,57.1875 L81.8181818,57.1875 L81.8181818,81.6964286 L59.3181818,81.6964286 L57.2727273,81.6964286 L57.2727273,73.5267857 C57.2727273,66.7382006 51.7987023,61.2723214 45,61.2723214 C38.2012977,61.2723214 32.7272727,66.7382006 32.7272727,73.5267857 L32.7272727,81.6964286 L30.6818182,81.6964286 L8.18181818,81.6964286 L8.18181818,57.1875 L36.8181818,57.1875 C37.8863632,57.1875 38.9753386,56.7967276 39.7465384,56.0266775 C40.5177361,55.2566253 40.9090909,54.1692704 40.9090909,53.1026786 L40.9090909,40.8482143 L32.7272727,40.8482143 L32.7272727,34.7209821 Z M4.09090909,44.9330357 L8.18181818,44.9330357 L8.18181818,49.0178571 L18.4090909,49.0178571 L18.4090909,44.9330357 L22.5,44.9330357 L22.5,49.0178571 L32.7272727,49.0178571 L32.7272727,44.9330357 L36.8181818,44.9330357 L36.8181818,53.1026786 L4.09090909,53.1026786 L4.09090909,44.9330357 Z M53.1818182,44.9330357 L57.2727273,44.9330357 L57.2727273,49.0178571 L67.5,49.0178571 L67.5,44.9330357 L71.5909091,44.9330357 L71.5909091,49.0178571 L81.8181818,49.0178571 L81.8181818,44.9330357 L85.9090909,44.9330357 L85.9090909,53.1026786 L53.1818182,53.1026786 L53.1818182,44.9330357 Z M20.4545455,63.3147321 C19.2272727,63.3147321 18.4090909,64.1316964 18.4090909,65.3571429 L18.4090909,71.484375 L22.5,71.484375 L22.5,65.3571429 C22.5,64.1316964 21.6818182,63.3147321 20.4545455,63.3147321 Z M69.5454545,63.3147321 C68.3181818,63.3147321 67.5,64.1316964 67.5,65.3571429 L67.5,71.484375 L71.5909091,71.484375 L71.5909091,65.3571429 C71.5909091,64.1316964 70.7727273,63.3147321 69.5454545,63.3147321 Z M45,65.3571429 C49.6558432,65.3571429 53.1818182,68.8778709 53.1818182,73.5267857 L53.1818182,81.6964286 L36.8181818,81.6964286 L36.8181818,73.5267857 C36.8181818,68.8778709 40.3441568,65.3571429 45,65.3571429 Z" id="Shape"></path>
            </g>
        </g>
    </g>
</svg>