<?xml version="1.0" encoding="UTF-8"?>
<svg width="92px" height="92px" viewBox="0 0 92 92" version="1.1" xmlns="http://www.w3.org/2000/svg" xmlns:xlink="http://www.w3.org/1999/xlink">
    <!-- Generator: Sketch 44.1 (41455) - http://www.bohemiancoding.com/sketch -->
    <title>Devices</title>
    <desc>Created with Sketch.</desc>
    <defs></defs>
    <g id="Page-1" stroke="none" stroke-width="1" fill="none" fill-rule="evenodd">
        <g id="Devices" fill-rule="nonzero" fill="#FFFFFF">
            <g id="icons8-Smartphone-Tablet-Filled" transform="translate(7.000000, 8.000000)">
                <path d="M6.24,0 C2.79864,0 0,2.78829632 0,6.21693717 L0,65.2778403 C0,68.7064811 2.79864,71.4947774 6.24,71.4947774 L39,71.4947774 L39,59.0609031 L7.8,59.0609031 L7.8,7.77117146 L48.36,7.77117146 L48.36,20.2050458 L56.16,20.2050458 L56.16,6.21693717 C56.16,2.78829632 53.36136,0 49.92,0 L6.24,0 Z M45.24,21.7592801 C42.65976,21.7592801 40.56,23.8512794 40.56,26.421983 L40.56,71.4947774 C40.56,74.065481 42.65976,76.1574803 45.24,76.1574803 L73.32,76.1574803 C75.90024,76.1574803 78,74.065481 78,71.4947774 L78,26.421983 C78,23.8512794 75.90024,21.7592801 73.32,21.7592801 L45.24,21.7592801 Z M48.36,29.5304516 L70.2,29.5304516 L70.2,63.723606 L48.36,63.723606 L48.36,29.5304516 Z M28.08,62.1693717 C29.37324,62.1693717 30.42,63.2138171 30.42,64.5007231 C30.42,65.7876291 29.37324,66.8320746 28.08,66.8320746 C26.78676,66.8320746 25.74,65.7876291 25.74,64.5007231 C25.74,63.2138171 26.78676,62.1693717 28.08,62.1693717 Z M59.28,66.8320746 C60.57168,66.8320746 61.62,67.87652 61.62,69.163426 C61.62,70.450332 60.57168,71.4947774 59.28,71.4947774 C57.98832,71.4947774 56.94,70.450332 56.94,69.163426 C56.94,67.87652 57.98832,66.8320746 59.28,66.8320746 Z" id="Shape"></path>
            </g>
        </g>
    </g>
</svg>