<?xml version="1.0" encoding="UTF-8"?>
<svg width="92px" height="92px" viewBox="0 0 92 92" version="1.1" xmlns="http://www.w3.org/2000/svg" xmlns:xlink="http://www.w3.org/1999/xlink">
    <!-- Generator: Sketch 44.1 (41455) - http://www.bohemiancoding.com/sketch -->
    <title>Graph</title>
    <desc>Created with Sketch.</desc>
    <defs></defs>
    <g id="Page-1" stroke="none" stroke-width="1" fill="none" fill-rule="evenodd">
        <g id="Graph" fill-rule="nonzero" fill="#FFFFFF">
            <g id="icons8-Line-Chart" transform="translate(3.000000, 14.000000)">
                <path d="M86.4,0 C84.4117758,0 82.8,1.59898304 82.8,3.57142857 C82.8,3.81798429 82.8082944,4.06438357 82.85625,4.296875 C82.8598464,4.31431179 82.852398,4.33533536 82.85625,4.35267857 L64.0125,21.5959821 C63.6892182,21.5014411 63.3541518,21.4285714 63,21.4285714 C62.369973,21.4285714 61.7713704,21.5928786 61.25625,21.875 L48.6,14.3973214 C48.60117,14.3598946 48.6,14.3234232 48.6,14.2857143 C48.6,12.3132688 46.9882242,10.7142857 45,10.7142857 C43.0117758,10.7142857 41.4,12.3132688 41.4,14.2857143 C41.4,14.4757071 41.4274446,14.6617821 41.45625,14.84375 L28.29375,25.2232143 C27.894033,25.0713375 27.453564,25 27,25 C25.1258058,25 23.5704456,26.4214696 23.4,28.2366071 L5.68125,36.3839286 C5.09392548,35.9708821 4.37472216,35.7142857 3.6,35.7142857 C1.6117749,35.7142857 0,37.3132696 0,39.2857143 C0,41.2581589 1.6117749,42.8571429 3.6,42.8571429 C5.47419456,42.8571429 7.02955368,41.4356732 7.2,39.6205357 L24.91875,31.4732143 C25.5060738,31.8862607 26.2252782,32.1428571 27,32.1428571 C28.9882242,32.1428571 30.6,30.5438732 30.6,28.5714286 C30.6,28.3814357 30.5725554,28.1953607 30.54375,28.0133929 L43.65,17.578125 C44.0676126,17.7462143 44.5215834,17.8571429 45,17.8571429 C45.656937,17.8571429 46.2698208,17.6598357 46.8,17.3549107 L59.4,24.8883929 C59.39883,24.9258196 59.4,24.9622911 59.4,25 C59.4,26.9724446 61.0117758,28.5714286 63,28.5714286 C64.9882242,28.5714286 66.6,26.9724446 66.6,25 C66.6,24.7534446 66.5917056,24.5070446 66.54375,24.2745536 L66.54375,24.21875 L85.3875,6.97544643 C85.7107818,7.06998696 86.0458482,7.14285714 86.4,7.14285714 C88.3882242,7.14285714 90,5.54387411 90,3.57142857 C90,1.59898304 88.3882242,0 86.4,0 Z M86.4,46.4285714 C84.4117758,46.4285714 82.8,48.0275554 82.8,50 C82.8,50.2465554 82.8082944,50.4929554 82.85625,50.7254464 C82.8598464,50.7428839 82.852398,50.7639071 82.85625,50.78125 L64.06875,68.0245536 C63.7305696,67.9202036 63.3727926,67.8571429 63,67.8571429 C62.6893398,67.8571429 62.3875662,67.89535 62.1,67.96875 L48.4875,54.4642857 C48.5614872,54.1790018 48.6,53.8796232 48.6,53.5714286 C48.6,51.5989839 46.9882242,50 45,50 C43.0117758,50 41.4,51.5989839 41.4,53.5714286 C41.4,53.7614214 41.4274446,53.9474964 41.45625,54.1294643 L28.29375,64.5089286 C27.894033,64.3570518 27.453564,64.2857143 27,64.2857143 C25.873911,64.2857143 24.9038784,64.8217982 24.24375,65.625 L6.91875,62.9464286 C6.38404308,61.6389679 5.1098085,60.7142857 3.6,60.7142857 C1.6117749,60.7142857 0,62.3132696 0,64.2857143 C0,66.2581589 1.6117749,67.8571429 3.6,67.8571429 C4.72608954,67.8571429 5.6961216,67.3210589 6.35625,66.5178571 L23.68125,69.1964286 C24.215958,70.5038893 25.4901924,71.4285714 27,71.4285714 C28.9882242,71.4285714 30.6,69.8295875 30.6,67.8571429 C30.6,67.66715 30.5725554,67.481075 30.54375,67.2991071 L43.65,56.8638393 C44.0676126,57.0319286 44.5215834,57.1428571 45,57.1428571 C45.3106602,57.1428571 45.6124338,57.10465 45.9,57.03125 L59.5125,70.5357143 C59.4385128,70.8209982 59.4,71.1203768 59.4,71.4285714 C59.4,73.4010161 61.0117758,75 63,75 C64.9882242,75 66.6,73.4010161 66.6,71.4285714 C66.6,71.1820161 66.5917056,70.9356161 66.54375,70.703125 C66.5401536,70.6856875 66.547602,70.6646643 66.54375,70.6473214 L85.3875,53.4040179 C85.7107818,53.4985589 86.0458482,53.5714286 86.4,53.5714286 C88.3882242,53.5714286 90,51.9724446 90,50 C90,48.0275554 88.3882242,46.4285714 86.4,46.4285714 Z" id="Shape"></path>
            </g>
        </g>
    </g>
</svg>