<?xml version="1.0" encoding="UTF-8"?>
<svg width="92px" height="92px" viewBox="0 0 92 92" version="1.1" xmlns="http://www.w3.org/2000/svg" xmlns:xlink="http://www.w3.org/1999/xlink">
    <!-- Generator: Sketch 44.1 (41455) - http://www.bohemiancoding.com/sketch -->
    <title>Knowledge</title>
    <desc>Created with Sketch.</desc>
    <defs></defs>
    <g id="Page-1" stroke="none" stroke-width="1" fill="none" fill-rule="evenodd">
        <g id="Knowledge" fill-rule="nonzero" fill="#FFFFFF">
            <g id="icons8-Knowledge-Sharing" transform="translate(4.000000, 8.833333)">
                <path d="M21.6680176,0.472567288 C20.810344,0.635856369 20.1950159,1.39151111 20.2104019,2.26259489 L20.2104019,34.4830918 C20.210501,35.4716558 21.0136389,36.2730206 22.0043904,36.2731194 L38.4866599,36.2731194 C41.2077081,36.2731194 43.7697677,37.3488096 45.7186761,39.2378526 C45.7566602,39.2746699 45.7932845,39.3122963 45.8308004,39.3497293 C45.8665045,39.3886521 45.9039158,39.4259808 45.9429247,39.4616061 C45.9616109,39.4618974 45.9803006,39.4618974 45.9989868,39.4616061 C46.1165874,39.5720338 46.2485913,39.6661141 46.3914218,39.7412979 C46.4101081,39.7415892 46.4287977,39.7415892 46.447484,39.7412979 C46.4841943,39.7612415 46.5215918,39.779899 46.5596082,39.7972362 C46.5782945,39.7975276 46.5969841,39.7975276 46.6156704,39.7972362 C47.0616587,39.9361693 47.5443717,39.896032 47.9611618,39.6853595 C48.1273631,39.5976233 48.2787093,39.4843642 48.4096589,39.3497293 C48.4486678,39.3141041 48.4860791,39.2767754 48.5217832,39.2378526 C50.4706916,37.3488096 53.0327512,36.2731194 55.7537994,36.2731194 L72.2360689,36.2731194 C73.2268204,36.2730206 74.0299584,35.4716558 74.0300574,34.4830918 L74.0300574,2.26259489 C74.0299584,1.27403089 73.2268204,0.472666129 72.2360689,0.472567288 L52.5021952,0.472567288 C50.3483147,0.472567288 48.4393099,1.4742125 47.1202297,2.98979361 C45.8011494,1.4742125 43.8921447,0.472567288 41.7382641,0.472567288 L22.0043904,0.472567288 C21.9483591,0.469943998 21.8922353,0.469943998 21.836204,0.472567288 C21.7801727,0.469943998 21.7240489,0.469943998 21.6680176,0.472567288 Z M23.7983789,4.0526225 L41.7382641,4.0526225 C43.7415501,4.0526225 45.3262411,5.63381456 45.3262411,7.63267771 L45.3262411,34.7627836 C43.2147651,33.5516456 40.9638764,32.6930642 38.4866599,32.6930642 L23.7983789,32.6930642 L23.7983789,4.0526225 Z M52.5021952,4.0526225 L70.4420804,4.0526225 L70.4420804,32.6930642 L55.7537994,32.6930642 C53.2765829,32.6930642 51.0256942,33.5516456 48.9142182,34.7627836 L48.9142182,7.63267771 C48.9142182,5.63381456 50.4989092,4.0526225 52.5021952,4.0526225 Z M76.1043566,45.1673191 C75.7787818,45.1716008 75.4764535,45.2267014 75.1513002,45.2791958 C74.2842243,45.4191759 73.41386,45.7359947 72.6285039,46.2301479 L52.5021952,58.6484645 C51.3898559,57.8849407 50.0963974,57.213709 48.6899696,56.578745 C45.9798055,55.3558716 37.3639173,51.7868984 30.8061466,48.9151894 C28.000806,47.6867937 25.0059377,47.0414976 22.0043904,47.013285 C19.0028431,46.9850742 15.9745026,47.5714282 13.1465721,48.7473743 L1.59777102,53.5580735 C0.942453978,53.7514811 0.454156171,54.2995479 0.338420155,54.9715724 C0.222684139,55.643597 0.499609697,56.3228692 1.05262865,56.7234585 C1.6056476,57.1240477 2.33871759,57.1763839 2.94326241,56.8584369 L14.5481256,52.0477377 C19.3009843,50.0713431 24.6330123,50.0947943 29.3485309,52.1596144 C35.9693998,55.0589543 44.7614792,58.7082675 47.2323539,59.8231701 C48.6637487,60.4694041 49.8445842,61.0986328 50.7082067,61.7250744 C50.9261832,62.1219914 51.286744,62.4217952 51.7173252,62.5641498 C52.299496,63.1764145 52.5021952,63.7305336 52.5021952,64.3541774 C52.5021952,65.7553144 52.1070459,65.995443 51.4930767,66.3120201 C50.8791074,66.6285973 49.9349869,66.7035887 49.3066532,66.7035887 C48.935694,66.7035887 47.2641649,66.4107241 45.4383654,65.9204516 C43.6125659,65.4301792 41.4433144,64.7961908 39.3836542,64.130424 C35.2643336,62.7988887 31.5910165,61.4453826 31.5910165,61.4453826 C30.9804734,61.1824796 30.274275,61.2780749 29.7559996,61.6937818 C29.2377242,62.1094886 28.9923851,62.777118 29.1184996,63.4285794 C29.2446142,64.0800409 29.7214956,64.6084744 30.3576494,64.8016844 C30.3576494,64.8016844 34.1311787,66.1332197 38.3184735,67.4867258 C40.4121209,68.1634797 42.6174548,68.872012 44.5413712,69.3886301 C46.4652875,69.9052482 47.9849841,70.2836439 49.3066532,70.2836439 C50.14939,70.2836439 51.6486818,70.2315362 53.1749409,69.4445685 C54.7012,68.6575936 56.0901722,66.8409805 56.0901722,64.3541774 C56.0901722,63.1892776 55.6846698,62.1536267 55.0810537,61.2216291 L74.5346167,49.3067579 C74.5349087,49.2881129 74.5349087,49.2694645 74.5346167,49.2508195 C76.0360362,48.306111 77.9610146,48.7601604 78.9074637,50.2577101 C79.8267931,51.7117405 79.4284864,53.5885433 78.0104694,54.564964 L46.3353597,76.157172 C44.3282381,77.5214684 41.7417893,77.7523998 39.4957785,76.8284323 L22.0043904,69.6683219 C17.1725999,67.6784914 11.642721,68.3171196 7.4282337,71.4024111 L1.20533604,75.9893569 C0.400317129,76.5763411 0.224618,77.7033417 0.812901047,78.5065832 C1.40118409,79.3098247 2.53067849,79.4851359 3.3356974,78.8981517 L9.55859507,74.311206 C12.7676322,71.9619738 16.980008,71.4536417 20.658899,72.9686853 L38.1502871,80.1847341 C41.5086964,81.5663221 45.3519023,81.1622413 48.3535968,79.1219052 L80.0847687,57.5296972 C83.0548476,55.4845513 83.8607557,51.4019047 81.9348193,48.3558057 C80.6345651,46.2984339 78.3833787,45.137345 76.1043566,45.1673191 Z" id="Shape"></path>
            </g>
        </g>
    </g>
</svg>