<?xml version="1.0" encoding="UTF-8"?>
<svg width="92px" height="92px" viewBox="0 0 92 92" version="1.1" xmlns="http://www.w3.org/2000/svg" xmlns:xlink="http://www.w3.org/1999/xlink">
    <!-- Generator: Sketch 44.1 (41455) - http://www.bohemiancoding.com/sketch -->
    <title>Phone</title>
    <desc>Created with Sketch.</desc>
    <defs></defs>
    <g id="Page-1" stroke="none" stroke-width="1" fill="none" fill-rule="evenodd">
        <g id="Phone" fill-rule="nonzero" fill="#FFFFFF">
            <g id="icons8-Phone" transform="translate(3.000000, 8.000000)">
                <path d="M16.3399429,0.431985204 C14.9633585,0.318205396 13.4254712,0.722015879 12.0039618,1.7134694 C10.7559155,2.58638651 8.05460376,4.7310679 5.53685605,7.14836618 C4.2779821,8.35701533 3.07970451,9.61534011 2.14882289,10.8523816 C1.21794109,12.0894237 0.401064343,13.2202728 0.453050786,14.8583362 C0.50077856,16.3343776 0.653143249,20.7004183 3.78842035,27.3782604 C6.92369709,34.0561007 13.0121523,43.2199486 24.8890208,55.1004471 C36.7694906,66.9836366 45.9341222,73.0755206 52.6112075,76.2115793 C59.2882929,79.347638 63.6557842,79.499243 65.1311317,79.5469492 C66.7690118,79.5980007 67.8972431,78.7787749 69.1335742,77.8476671 C70.3699071,76.9165558 71.6293084,75.71872 72.83759,74.4596333 C75.2527383,71.9429337 77.3912953,69.2479332 78.2654645,67.9960385 C80.2499609,65.1686528 79.9211964,61.8214871 77.7072287,60.2685143 C76.3164021,59.2951561 63.5270751,50.7824451 61.6096826,49.6093748 C59.6559267,48.4142929 57.4075137,48.9531219 55.4023845,50.0131294 C53.8156997,50.8484095 49.5435111,53.3017907 48.3208687,54.0015291 C47.4031458,53.4180156 43.9123941,51.0976847 36.4013121,43.5881558 C28.8927647,36.0811616 26.5775605,32.5902463 25.9949585,31.67211 C26.6934852,30.4526456 29.1401435,26.1930941 29.9798475,24.5905924 L29.9798475,24.5870817 C31.0343812,22.5889882 31.6198702,20.3208503 30.3695593,18.3516962 C29.837358,17.5127688 27.4452889,13.8742266 25.0259467,10.2133951 C22.6066046,6.55256407 20.3120223,3.0862542 19.7139322,2.25766113 L19.7139322,2.25415026 C18.9331442,1.1747143 17.7165255,0.545765372 16.3399429,0.431985204 Z M16.0134271,4.1079135 C16.5040879,4.16894882 16.8005067,4.36508785 16.7998721,4.36421027 C17.0892893,4.76534252 19.6091418,8.53933072 22.024114,12.1935513 C24.4398358,15.8489064 26.9013134,19.5992389 27.3326178,20.2791893 C27.401106,20.3870626 27.5014653,21.5785583 26.7989587,22.9088655 L26.7989587,22.9123762 L26.795448,22.9158869 C26.0036426,24.4278117 22.3084979,30.8926863 22.3084979,30.8926863 L21.792394,31.7949913 L22.31903,32.6937856 C22.31903,32.6937856 25.0795958,37.3520603 33.8594086,46.1300576 C42.6405822,54.9094156 47.2956823,57.6774575 47.2956823,57.6774575 L48.1944766,58.2040953 L49.1002923,57.6879914 C49.1002923,57.6879914 55.5566032,53.9944484 57.0770917,53.1940199 L57.0806024,53.1940199 C58.4010121,52.4959857 59.596218,52.5896023 59.7348552,52.6744036 C60.9846215,53.4390169 74.7900013,62.6174899 75.6428115,63.2141706 C75.6686428,63.2322921 76.4198893,64.3692939 75.3233189,65.9316195 L75.3198082,65.9351302 C74.6596599,66.8808505 72.4970458,69.6215961 70.2430243,71.9703937 C69.1160135,73.1447925 67.9523499,74.2365489 66.9708504,74.9757371 C65.9909489,75.713534 65.1116548,75.9467513 65.2469917,75.951772 C63.7203662,75.9024084 60.3428051,75.8693382 54.1419675,72.9569606 C47.9411281,70.0445831 39.0916749,64.2219653 27.4309226,52.5585436 C15.7737618,40.89782 9.95484977,32.0493807 7.04303864,25.8475005 C4.13122751,19.6456203 4.09756946,16.2684079 4.04822799,14.7424762 C4.05257833,14.8795532 4.28540902,13.9969623 5.02426251,13.0151054 C5.76311583,12.033249 6.85193268,10.8667388 8.0260949,9.73942154 C10.3744195,7.48478705 13.1145494,5.32135052 14.0613573,4.65912733 L14.0613573,4.6626382 C14.8383021,4.12075422 15.5227663,4.04687818 16.0134271,4.1079135 Z" id="Shape"></path>
            </g>
        </g>
    </g>
</svg>