<?xml version="1.0" encoding="UTF-8"?>
<svg width="92px" height="92px" viewBox="0 0 92 92" version="1.1" xmlns="http://www.w3.org/2000/svg" xmlns:xlink="http://www.w3.org/1999/xlink">
    <!-- Generator: Sketch 44.1 (41455) - http://www.bohemiancoding.com/sketch -->
    <title>Snail</title>
    <desc>Created with Sketch.</desc>
    <defs></defs>
    <g id="Page-1" stroke="none" stroke-width="1" fill="none" fill-rule="evenodd">
        <g id="Snail" fill-rule="nonzero" fill="#FFFFFF">
            <g id="icons8-Snail" transform="translate(0.000000, 2.000000)">
                <path d="M71.5406162,0 C66.8887574,0 64.8653643,7.77340661 67.8991597,20.4241071 C65.542495,21.1858446 63.5728224,22.6101161 62.1848739,24.4419643 C60.1014929,27.1916607 59.1596639,30.7184196 59.1596639,34.2633929 C59.1596639,39.2957625 58.6327377,44.4896768 57.3669468,49.1071429 C57.3669468,34.3676554 45.0129246,23.2142857 30.4761905,23.2142857 C15.9394565,23.2142857 3.19970295,34.3703018 3.58543417,49.1629464 C3.89925826,57.4467946 7.72357647,64.9841304 13.7815126,69.8660714 C10.6816246,70.0263268 7.75128632,70.1964089 5.49019608,70.4799107 C4.22625667,70.6383929 3.16411231,70.8187589 2.24089636,71.1495536 C1.7792884,71.3149518 1.33826408,71.4995339 0.896358543,71.875 C0.454453011,72.2504661 0,72.9873518 0,73.7723214 C0,74.8934839 0.63540048,75.7333161 1.34453782,76.3392857 C2.0536752,76.9452554 2.93713587,77.4124696 3.97759104,77.8459821 C6.0585012,78.7130071 8.87436728,79.4505429 12.4369748,80.078125 C19.5621898,81.3332893 29.566184,82.1428571 41.5686275,82.1428571 C59.2956271,82.1428571 68.984623,75.6178804 73.837535,67.3549107 C78.477431,59.4546429 78.8013051,50.3977357 78.8235294,44.0290179 C82.8720834,41.7722607 86.0504202,37.6027571 86.0504202,32.7008929 C86.0504202,27.1247732 82.2034286,22.7753875 77.254902,20.8705357 C82.1792986,4.32156732 85.4310328,13.9364641 89.0756303,9.09598214 C90.3305322,7.48883929 89.4789916,5.20089286 87.5070028,4.12946429 C83.2094548,1.90346875 78.0488157,7.55337732 74.789916,20.1450893 C73.7726548,19.9348232 72.757803,19.8102679 71.7086835,19.8102679 C71.1951453,19.8102679 70.6844379,19.8650429 70.1960784,19.921875 C66.840614,2.80096464 74.2491429,9.63723214 75.2941176,3.73883929 C75.6526611,1.59598214 73.8711485,0 71.5406162,0 Z M71.7086835,23.3816964 C77.2993058,23.3816964 82.464986,27.3966607 82.464986,32.7008929 C82.464986,36.3080357 79.6951682,39.8955268 76.3585434,41.40625 C75.7157212,41.690952 75.2994565,42.3238215 75.2941176,43.0245536 C75.2941176,49.3219214 75.0014297,58.3410946 70.7563025,65.5691964 C66.5111754,72.7972982 58.4410676,78.5714286 41.5686275,78.5714286 C29.7279337,78.5714286 19.8663816,77.7626929 13.0532213,76.5625 C9.64664112,75.9624036 6.97791337,75.2434661 5.32212885,74.5535714 C5.0308195,74.4321946 4.9874958,74.3353732 4.76190476,74.21875 C5.17261965,74.1379821 5.39606248,74.0635357 5.93837535,73.9955357 C8.21721941,73.7098089 11.4922726,73.5604464 15.0140056,73.3816964 C18.5357392,73.2029464 22.3422978,73.0008214 25.7703081,72.6004464 C29.1775157,72.2025018 32.1740208,71.6594768 34.4537815,70.5357143 C34.4656134,70.5301786 34.4979003,70.5414286 34.5098039,70.5357143 C35.4277235,70.1012875 36.4478584,69.4153429 37.535014,68.5267857 C37.5549849,68.5278821 37.5710835,68.5257339 37.5910364,68.5267857 C42.7632009,68.7996946 47.0614642,67.6145125 50.5322129,65.4575893 C50.5810537,65.4272375 50.6517746,65.4325304 50.7002801,65.4017857 C50.930273,65.3147682 51.1399811,65.1818389 51.3165266,65.0111607 C51.3383243,64.9961714 51.3508231,64.9704286 51.372549,64.9553571 C51.3899115,64.9361411 51.4112645,64.9188661 51.4285714,64.8995536 C54.0022839,63.0985911 56.0760865,60.7208018 57.6470588,57.9799107 C61.5099662,51.2402554 62.745098,42.4842929 62.745098,34.2633929 C62.745098,31.3797946 63.5959861,28.60075 65.0980392,26.6183036 C66.6000923,24.6358571 68.6461257,23.3816964 71.7086835,23.3816964 Z M30.4761905,26.7857143 C43.1887561,26.7857143 53.7815126,36.3466304 53.7815126,49.1071429 C53.7815126,53.8185411 51.6728524,59.0621946 48.907563,62.2767857 C46.7460554,63.6778357 44.1917078,64.5790946 41.0644258,64.84375 C43.147312,62.0472107 44.8179272,58.2957518 44.8179272,53.7388393 C44.8179272,47.7614964 42.5141674,43.5676107 39.4397759,41.015625 C36.3653844,38.4636393 32.6631978,37.5 29.7478992,37.5 C23.4194142,37.5 19.719888,41.9642857 19.719888,46.4285714 C19.719888,48.6011911 20.4144941,50.8299607 21.8487395,52.6227679 C23.2829849,54.415575 25.5805795,55.6919643 28.3473389,55.6919643 C28.9938571,55.7010719 29.5952159,55.3627227 29.9211433,54.8064771 C30.2470706,54.2502314 30.2470706,53.5622686 29.9211433,53.0060229 C29.5952159,52.4497773 28.9938571,52.1114281 28.3473389,52.1205357 C26.6323057,52.1205357 25.5013289,51.4549607 24.6498599,50.390625 C23.798391,49.3262893 23.3053221,47.8273804 23.3053221,46.4285714 C23.3053221,43.75 24.9615382,41.0714286 29.7478992,41.0714286 C31.8522084,41.0714286 34.8390974,41.8377 37.1428571,43.75 C39.4466169,45.6623 41.232493,48.6447536 41.232493,53.7388393 C41.232493,57.4920054 39.8593685,60.5678375 38.0952381,62.890625 C36.3311077,65.2134125 34.112692,66.7499589 32.9411765,67.2991071 C32.922092,67.317295 32.9034133,67.3359008 32.8851541,67.3549107 C31.404938,68.0921286 28.5831942,68.7039464 25.3221289,69.0848214 C23.5717844,69.2892518 21.6827518,69.4154357 19.7759104,69.53125 C19.7572374,69.5309612 19.738561,69.5309612 19.719888,69.53125 C19.7016261,69.5122426 19.6829475,69.4936369 19.6638655,69.4754464 C12.3778958,65.6817482 7.50629306,57.905375 7.17086835,49.0513393 C6.83951274,36.3439839 17.7636247,26.7857143 30.4761905,26.7857143 Z" id="Shape"></path>
            </g>
        </g>
    </g>
</svg>