<?xml version="1.0" encoding="UTF-8"?>
<svg width="92px" height="92px" viewBox="0 0 92 92" version="1.1" xmlns="http://www.w3.org/2000/svg" xmlns:xlink="http://www.w3.org/1999/xlink">
    <!-- Generator: Sketch 44.1 (41455) - http://www.bohemiancoding.com/sketch -->
    <title>Trailer</title>
    <desc>Created with Sketch.</desc>
    <defs></defs>
    <g id="Page-1" stroke="none" stroke-width="1" fill="none" fill-rule="evenodd">
        <g id="Trailer" fill-rule="nonzero" fill="#FFFFFF">
            <g id="icons8-Trailer-Filled" transform="translate(0.000000, 14.000000)">
                <path d="M88.2,53.9779682 L77.4,53.9779682 L77.4,43.1823745 C77.4,18.2355569 54.6642,0 45,0 L12.6,0 C6.1236,0 0,6.12110159 0,12.5948592 L0,45.8129009 C0,52.2992534 5.2812,57.5764994 11.7702,57.5764994 L25.2,57.5764994 C25.2,63.5302693 30.0438,68.372093 36,68.372093 C41.9562,68.372093 46.8,63.5302693 46.8,57.5764994 L68.4,57.5764994 L75.6,57.5764994 L88.2,57.5764994 C89.1954,57.5764994 90,56.7722277 90,55.7772338 C90,54.7822399 89.1954,53.9779682 88.2,53.9779682 Z M25.2,25.1897185 L10.8,25.1897185 L10.8,14.3941248 C10.8,12.5606732 12.5658,10.7955936 14.4,10.7955936 L25.2,10.7955936 L25.2,25.1897185 Z M36,64.7735618 C32.0292,64.7735618 28.8,61.5456793 28.8,57.5764994 C28.8,53.6073195 32.0292,50.379437 36,50.379437 C39.9708,50.379437 43.2,53.6073195 43.2,57.5764994 C43.2,61.5456793 39.9708,64.7735618 36,64.7735618 Z M34.2,25.1897185 L34.2,10.7955936 L43.2,10.7955936 C50.4,10.7955936 57.6,17.9926561 61.2,25.1897185 L34.2,25.1897185 Z" id="Shape"></path>
            </g>
        </g>
    </g>
</svg>