<?xml version="1.0" encoding="UTF-8"?>
<svg width="503px" height="155px" viewBox="0 0 503 155" version="1.1" xmlns="http://www.w3.org/2000/svg" xmlns:xlink="http://www.w3.org/1999/xlink">
    <!-- Generator: Sketch 44.1 (41455) - http://www.bohemiancoding.com/sketch -->
    <title>TrailerW Copy 2</title>
    <desc>Created with Sketch.</desc>
    <defs></defs>
    <g id="Page-1" stroke="none" stroke-width="1" fill="none" fill-rule="evenodd">
        <g id="TrailerW-Copy-2">
            <g id="noun_679881_cc-copy-3" transform="translate(412.000000, 94.000000)" stroke="#FFFFFF" stroke-linecap="round" stroke-linejoin="round">
                <path d="M61.112,40.224 C61.112,43.292 58.625,45.779 55.555,45.779 C52.485,45.779 50,43.292 50,40.224 C50,37.152 52.486,34.666 55.556,34.666 C58.626,34.666 61.112,37.151 61.112,40.224 Z" id="Shape"></path>
                <path d="M19.446,44.112 C19.446,45.031 18.698,45.778 17.777,45.778 C16.859,45.778 16.111,45.031 16.111,44.112 C16.111,43.19 16.859,42.443 17.777,42.443 C18.698,42.443 19.446,43.19 19.446,44.112 Z" id="Shape"></path>
                <circle id="Oval" cx="55.556" cy="40.224" r="2.223"></circle>
                <path d="M74.446,40.224 C74.446,43.292 71.956,45.779 68.888,45.779 C65.819,45.779 63.332,43.293 63.332,40.224 C63.332,37.152 65.818,34.666 68.888,34.666 C71.956,34.666 74.446,37.151 74.446,40.224 Z" id="Shape"></path>
                <circle id="Oval" cx="68.889" cy="40.224" r="2.223"></circle>
                <rect id="Rectangle-path" x="0" y="0.222" width="80" height="33.332"></rect>
                <rect id="Rectangle-path" x="0" y="30.223" width="80" height="3.331"></rect>
                <rect id="Rectangle-path" x="0" y="0.222" width="80" height="3.335"></rect>
                <rect id="Rectangle-path" x="77.779" y="33.558" width="2.221" height="8.886"></rect>
                <path d="M44.444,33.558 L44.444,40.224 L50,40.224 C50,37.152 52.486,34.666 55.556,34.666 C58.626,34.666 61.113,37.151 61.113,40.224 L63.334,40.224 C63.334,37.152 65.82,34.666 68.89,34.666 C71.957,34.666 74.448,37.151 74.448,40.224 L77.779,40.224 L77.779,33.558 L44.444,33.558 L44.444,33.558 Z" id="Shape"></path>
                <path d="M35.556,3.557 L35.556,30.223 L35.556,3.557 Z" id="Shape"></path>
                <path d="M26.667,3.557 L26.667,30.223 L26.667,3.557 Z" id="Shape"></path>
                <path d="M17.78,3.557 L17.78,30.223 L17.78,3.557 Z" id="Shape"></path>
                <path d="M8.89,3.557 L8.89,30.223 L8.89,3.557 Z" id="Shape"></path>
                <path d="M44.444,3.557 L44.444,30.223 L44.444,3.557 Z" id="Shape"></path>
                <path d="M53.333,3.557 L53.333,30.223 L53.333,3.557 Z" id="Shape"></path>
                <path d="M62.221,3.557 L62.221,30.223 L62.221,3.557 Z" id="Shape"></path>
                <path d="M71.109,3.557 L71.109,30.223 L71.109,3.557 Z" id="Shape"></path>
                <path d="M17.776,42.443 L17.776,33.557 L17.776,42.443 Z" id="Shape"></path>
            </g>
            <g id="Group" transform="translate(410.000000, 15.000000)">
                <rect id="Rectangle" fill="#FFFFFF" x="0" y="3" width="7" height="26"></rect>
                <rect id="Rectangle" fill="#FFFFFF" x="8.875" y="3" width="7" height="26"></rect>
                <rect id="Rectangle" fill="#FFFFFF" x="17.75" y="3" width="7" height="26"></rect>
                <rect id="Rectangle" fill="#FFFFFF" x="26.625" y="3" width="7" height="26"></rect>
                <rect id="Rectangle" fill="#FFFFFF" x="35.5" y="3" width="7" height="26"></rect>
                <rect id="Rectangle" fill="#FFFFFF" x="44.375" y="3" width="7" height="26"></rect>
                <rect id="Rectangle" fill="#FFFFFF" x="53.25" y="3" width="7" height="26"></rect>
                <rect id="Rectangle" fill="#FFFFFF" x="62.125" y="3" width="7" height="26"></rect>
                <rect id="Rectangle" fill="#FFFFFF" x="71" y="3" width="7" height="26"></rect>
                <rect id="Rectangle-2" fill="#FFFFFF" x="0" y="0" width="78" height="2"></rect>
                <rect id="Rectangle-2" fill="#FFFFFF" x="0" y="30" width="78" height="2"></rect>
                <rect id="Rectangle-3" fill="#FFFFFF" x="77" y="33" width="1" height="8"></rect>
                <circle id="Oval-2" stroke="#FFFFFF" cx="55" cy="39" r="5"></circle>
                <circle id="Oval-2" fill="#D8D8D8" cx="16.5" cy="42.5" r="1.5"></circle>
                <circle id="Oval-2" fill="#FFFFFF" cx="55" cy="39" r="2"></circle>
                <circle id="Oval-2" fill="#FFFFFF" cx="68" cy="39" r="2"></circle>
                <circle id="Oval-2" stroke="#FFFFFF" cx="68" cy="39" r="5"></circle>
                <path d="M43,33 L76,33 L76,39 L73.964566,39 C73.4236952,35 71.4411385,33 68.016896,33 C64.5926534,33 62.5858857,35 61.9965931,39 L61.133943,39 C60.3941367,35 58.3541535,33 55.0139934,33 C51.6738333,33 49.6922307,35 49.0691858,39 L43,39 L43,33 Z" id="Rectangle-4" fill="#FFFFFF"></path>
                <rect id="Rectangle-5" fill="#D8D8D8" x="16" y="32" width="1" height="9"></rect>
            </g>
            <g id="Group" transform="translate(10.000000, 15.000000)">
                <rect id="Rectangle" fill="#FFFFFF" x="0" y="3" width="7" height="26"></rect>
                <rect id="Rectangle" fill="#FFFFFF" x="8.875" y="3" width="7" height="26"></rect>
                <rect id="Rectangle" fill="#FFFFFF" x="17.75" y="3" width="7" height="26"></rect>
                <rect id="Rectangle" fill="#FFFFFF" x="26.625" y="3" width="7" height="26"></rect>
                <rect id="Rectangle" fill="#FFFFFF" x="35.5" y="3" width="7" height="26"></rect>
                <rect id="Rectangle" fill="#FFFFFF" x="44.375" y="3" width="7" height="26"></rect>
                <rect id="Rectangle" fill="#FFFFFF" x="53.25" y="3" width="7" height="26"></rect>
                <rect id="Rectangle" fill="#FFFFFF" x="62.125" y="3" width="7" height="26"></rect>
                <rect id="Rectangle" fill="#FFFFFF" x="71" y="3" width="7" height="26"></rect>
                <rect id="Rectangle-2" fill="#FFFFFF" x="0" y="0" width="78" height="2"></rect>
                <rect id="Rectangle-2" fill="#FFFFFF" x="0" y="30" width="78" height="2"></rect>
                <rect id="Rectangle-3" fill="#FFFFFF" x="77" y="33" width="1" height="8"></rect>
                <circle id="Oval-2" stroke="#FFFFFF" cx="55" cy="39" r="5"></circle>
                <circle id="Oval-2" fill="#D8D8D8" cx="16.5" cy="42.5" r="1.5"></circle>
                <circle id="Oval-2" fill="#FFFFFF" cx="55" cy="39" r="2"></circle>
                <circle id="Oval-2" fill="#FFFFFF" cx="68" cy="39" r="2"></circle>
                <circle id="Oval-2" stroke="#FFFFFF" cx="68" cy="39" r="5"></circle>
                <path d="M43,33 L76,33 L76,39 L73.964566,39 C73.4236952,35 71.4411385,33 68.016896,33 C64.5926534,33 62.5858857,35 61.9965931,39 L61.133943,39 C60.3941367,35 58.3541535,33 55.0139934,33 C51.6738333,33 49.6922307,35 49.0691858,39 L43,39 L43,33 Z" id="Rectangle-4" fill="#FFFFFF"></path>
                <rect id="Rectangle-5" fill="#D8D8D8" x="16" y="32" width="1" height="9"></rect>
            </g>
            <g id="Group" transform="translate(110.000000, 15.000000)">
                <rect id="Rectangle" fill="#FFFFFF" x="0" y="3" width="7" height="26"></rect>
                <rect id="Rectangle" fill="#FFFFFF" x="8.875" y="3" width="7" height="26"></rect>
                <rect id="Rectangle" fill="#FFFFFF" x="17.75" y="3" width="7" height="26"></rect>
                <rect id="Rectangle" fill="#FFFFFF" x="26.625" y="3" width="7" height="26"></rect>
                <rect id="Rectangle" fill="#FFFFFF" x="35.5" y="3" width="7" height="26"></rect>
                <rect id="Rectangle" fill="#FFFFFF" x="44.375" y="3" width="7" height="26"></rect>
                <rect id="Rectangle" fill="#FFFFFF" x="53.25" y="3" width="7" height="26"></rect>
                <rect id="Rectangle" fill="#FFFFFF" x="62.125" y="3" width="7" height="26"></rect>
                <rect id="Rectangle" fill="#FFFFFF" x="71" y="3" width="7" height="26"></rect>
                <rect id="Rectangle-2" fill="#FFFFFF" x="0" y="0" width="78" height="2"></rect>
                <rect id="Rectangle-2" fill="#FFFFFF" x="0" y="30" width="78" height="2"></rect>
                <rect id="Rectangle-3" fill="#FFFFFF" x="77" y="33" width="1" height="8"></rect>
                <circle id="Oval-2" stroke="#FFFFFF" cx="55" cy="39" r="5"></circle>
                <circle id="Oval-2" fill="#D8D8D8" cx="16.5" cy="42.5" r="1.5"></circle>
                <circle id="Oval-2" fill="#FFFFFF" cx="55" cy="39" r="2"></circle>
                <circle id="Oval-2" fill="#FFFFFF" cx="68" cy="39" r="2"></circle>
                <circle id="Oval-2" stroke="#FFFFFF" cx="68" cy="39" r="5"></circle>
                <path d="M43,33 L76,33 L76,39 L73.964566,39 C73.4236952,35 71.4411385,33 68.016896,33 C64.5926534,33 62.5858857,35 61.9965931,39 L61.133943,39 C60.3941367,35 58.3541535,33 55.0139934,33 C51.6738333,33 49.6922307,35 49.0691858,39 L43,39 L43,33 Z" id="Rectangle-4" fill="#FFFFFF"></path>
                <rect id="Rectangle-5" fill="#D8D8D8" x="16" y="32" width="1" height="9"></rect>
            </g>
            <g id="Group" transform="translate(210.000000, 15.000000)">
                <rect id="Rectangle" fill="#FFFFFF" x="0" y="3" width="7" height="26"></rect>
                <rect id="Rectangle" fill="#FFFFFF" x="8.875" y="3" width="7" height="26"></rect>
                <rect id="Rectangle" fill="#FFFFFF" x="17.75" y="3" width="7" height="26"></rect>
                <rect id="Rectangle" fill="#FFFFFF" x="26.625" y="3" width="7" height="26"></rect>
                <rect id="Rectangle" fill="#FFFFFF" x="35.5" y="3" width="7" height="26"></rect>
                <rect id="Rectangle" fill="#FFFFFF" x="44.375" y="3" width="7" height="26"></rect>
                <rect id="Rectangle" fill="#FFFFFF" x="53.25" y="3" width="7" height="26"></rect>
                <rect id="Rectangle" fill="#FFFFFF" x="62.125" y="3" width="7" height="26"></rect>
                <rect id="Rectangle" fill="#FFFFFF" x="71" y="3" width="7" height="26"></rect>
                <rect id="Rectangle-2" fill="#FFFFFF" x="0" y="0" width="78" height="2"></rect>
                <rect id="Rectangle-2" fill="#FFFFFF" x="0" y="30" width="78" height="2"></rect>
                <rect id="Rectangle-3" fill="#FFFFFF" x="77" y="33" width="1" height="8"></rect>
                <circle id="Oval-2" stroke="#FFFFFF" cx="55" cy="39" r="5"></circle>
                <circle id="Oval-2" fill="#D8D8D8" cx="16.5" cy="42.5" r="1.5"></circle>
                <circle id="Oval-2" fill="#FFFFFF" cx="55" cy="39" r="2"></circle>
                <circle id="Oval-2" fill="#FFFFFF" cx="68" cy="39" r="2"></circle>
                <circle id="Oval-2" stroke="#FFFFFF" cx="68" cy="39" r="5"></circle>
                <path d="M43,33 L76,33 L76,39 L73.964566,39 C73.4236952,35 71.4411385,33 68.016896,33 C64.5926534,33 62.5858857,35 61.9965931,39 L61.133943,39 C60.3941367,35 58.3541535,33 55.0139934,33 C51.6738333,33 49.6922307,35 49.0691858,39 L43,39 L43,33 Z" id="Rectangle-4" fill="#FFFFFF"></path>
                <rect id="Rectangle-5" fill="#D8D8D8" x="16" y="32" width="1" height="9"></rect>
            </g>
            <g id="Group" transform="translate(310.000000, 15.000000)">
                <rect id="Rectangle" fill="#FFFFFF" x="0" y="3" width="7" height="26"></rect>
                <rect id="Rectangle" fill="#FFFFFF" x="8.875" y="3" width="7" height="26"></rect>
                <rect id="Rectangle" fill="#FFFFFF" x="17.75" y="3" width="7" height="26"></rect>
                <rect id="Rectangle" fill="#FFFFFF" x="26.625" y="3" width="7" height="26"></rect>
                <rect id="Rectangle" fill="#FFFFFF" x="35.5" y="3" width="7" height="26"></rect>
                <rect id="Rectangle" fill="#FFFFFF" x="44.375" y="3" width="7" height="26"></rect>
                <rect id="Rectangle" fill="#FFFFFF" x="53.25" y="3" width="7" height="26"></rect>
                <rect id="Rectangle" fill="#FFFFFF" x="62.125" y="3" width="7" height="26"></rect>
                <rect id="Rectangle" fill="#FFFFFF" x="71" y="3" width="7" height="26"></rect>
                <rect id="Rectangle-2" fill="#FFFFFF" x="0" y="0" width="78" height="2"></rect>
                <rect id="Rectangle-2" fill="#FFFFFF" x="0" y="30" width="78" height="2"></rect>
                <rect id="Rectangle-3" fill="#FFFFFF" x="77" y="33" width="1" height="8"></rect>
                <circle id="Oval-2" stroke="#FFFFFF" cx="55" cy="39" r="5"></circle>
                <circle id="Oval-2" fill="#D8D8D8" cx="16.5" cy="42.5" r="1.5"></circle>
                <circle id="Oval-2" fill="#FFFFFF" cx="55" cy="39" r="2"></circle>
                <circle id="Oval-2" fill="#FFFFFF" cx="68" cy="39" r="2"></circle>
                <circle id="Oval-2" stroke="#FFFFFF" cx="68" cy="39" r="5"></circle>
                <path d="M43,33 L76,33 L76,39 L73.964566,39 C73.4236952,35 71.4411385,33 68.016896,33 C64.5926534,33 62.5858857,35 61.9965931,39 L61.133943,39 C60.3941367,35 58.3541535,33 55.0139934,33 C51.6738333,33 49.6922307,35 49.0691858,39 L43,39 L43,33 Z" id="Rectangle-4" fill="#FFFFFF"></path>
                <rect id="Rectangle-5" fill="#D8D8D8" x="16" y="32" width="1" height="9"></rect>
            </g>
            <g id="Group" transform="translate(10.000000, 95.000000)">
                <rect id="Rectangle" fill="#FFFFFF" x="0" y="3" width="7" height="26"></rect>
                <rect id="Rectangle" fill="#FFFFFF" x="8.875" y="3" width="7" height="26"></rect>
                <rect id="Rectangle" fill="#FFFFFF" x="17.75" y="3" width="7" height="26"></rect>
                <rect id="Rectangle" fill="#FFFFFF" x="26.625" y="3" width="7" height="26"></rect>
                <rect id="Rectangle" fill="#FFFFFF" x="35.5" y="3" width="7" height="26"></rect>
                <rect id="Rectangle" fill="#FFFFFF" x="44.375" y="3" width="7" height="26"></rect>
                <rect id="Rectangle" fill="#FFFFFF" x="53.25" y="3" width="7" height="26"></rect>
                <rect id="Rectangle" fill="#FFFFFF" x="62.125" y="3" width="7" height="26"></rect>
                <rect id="Rectangle" fill="#FFFFFF" x="71" y="3" width="7" height="26"></rect>
                <rect id="Rectangle-2" fill="#FFFFFF" x="0" y="0" width="78" height="2"></rect>
                <rect id="Rectangle-2" fill="#FFFFFF" x="0" y="30" width="78" height="2"></rect>
                <rect id="Rectangle-3" fill="#FFFFFF" x="77" y="33" width="1" height="8"></rect>
                <circle id="Oval-2" stroke="#FFFFFF" cx="55" cy="39" r="5"></circle>
                <circle id="Oval-2" fill="#D8D8D8" cx="16.5" cy="42.5" r="1.5"></circle>
                <circle id="Oval-2" fill="#FFFFFF" cx="55" cy="39" r="2"></circle>
                <circle id="Oval-2" fill="#FFFFFF" cx="68" cy="39" r="2"></circle>
                <circle id="Oval-2" stroke="#FFFFFF" cx="68" cy="39" r="5"></circle>
                <path d="M43,33 L76,33 L76,39 L73.964566,39 C73.4236952,35 71.4411385,33 68.016896,33 C64.5926534,33 62.5858857,35 61.9965931,39 L61.133943,39 C60.3941367,35 58.3541535,33 55.0139934,33 C51.6738333,33 49.6922307,35 49.0691858,39 L43,39 L43,33 Z" id="Rectangle-4" fill="#FFFFFF"></path>
                <rect id="Rectangle-5" fill="#D8D8D8" x="16" y="32" width="1" height="9"></rect>
            </g>
            <g id="Group" transform="translate(110.250000, 95.000000)">
                <rect id="Rectangle" fill="#FFFFFF" x="0" y="3" width="7" height="26"></rect>
                <rect id="Rectangle" fill="#FFFFFF" x="8.875" y="3" width="7" height="26"></rect>
                <rect id="Rectangle" fill="#FFFFFF" x="17.75" y="3" width="7" height="26"></rect>
                <rect id="Rectangle" fill="#FFFFFF" x="26.625" y="3" width="7" height="26"></rect>
                <rect id="Rectangle" fill="#FFFFFF" x="35.5" y="3" width="7" height="26"></rect>
                <rect id="Rectangle" fill="#FFFFFF" x="44.375" y="3" width="7" height="26"></rect>
                <rect id="Rectangle" fill="#FFFFFF" x="53.25" y="3" width="7" height="26"></rect>
                <rect id="Rectangle" fill="#FFFFFF" x="62.125" y="3" width="7" height="26"></rect>
                <rect id="Rectangle" fill="#FFFFFF" x="71" y="3" width="7" height="26"></rect>
                <rect id="Rectangle-2" fill="#FFFFFF" x="0" y="0" width="78" height="2"></rect>
                <rect id="Rectangle-2" fill="#FFFFFF" x="0" y="30" width="78" height="2"></rect>
                <rect id="Rectangle-3" fill="#FFFFFF" x="77" y="33" width="1" height="8"></rect>
                <circle id="Oval-2" stroke="#FFFFFF" cx="55" cy="39" r="5"></circle>
                <circle id="Oval-2" fill="#D8D8D8" cx="16.5" cy="42.5" r="1.5"></circle>
                <circle id="Oval-2" fill="#FFFFFF" cx="55" cy="39" r="2"></circle>
                <circle id="Oval-2" fill="#FFFFFF" cx="68" cy="39" r="2"></circle>
                <circle id="Oval-2" stroke="#FFFFFF" cx="68" cy="39" r="5"></circle>
                <path d="M43,33 L76,33 L76,39 L73.964566,39 C73.4236952,35 71.4411385,33 68.016896,33 C64.5926534,33 62.5858857,35 61.9965931,39 L61.133943,39 C60.3941367,35 58.3541535,33 55.0139934,33 C51.6738333,33 49.6922307,35 49.0691858,39 L43,39 L43,33 Z" id="Rectangle-4" fill="#FFFFFF"></path>
                <rect id="Rectangle-5" fill="#D8D8D8" x="16" y="32" width="1" height="9"></rect>
            </g>
            <g id="Group" transform="translate(210.500000, 95.000000)">
                <rect id="Rectangle" fill="#FFFFFF" x="0" y="3" width="7" height="26"></rect>
                <rect id="Rectangle" fill="#FFFFFF" x="8.875" y="3" width="7" height="26"></rect>
                <rect id="Rectangle" fill="#FFFFFF" x="17.75" y="3" width="7" height="26"></rect>
                <rect id="Rectangle" fill="#FFFFFF" x="26.625" y="3" width="7" height="26"></rect>
                <rect id="Rectangle" fill="#FFFFFF" x="35.5" y="3" width="7" height="26"></rect>
                <rect id="Rectangle" fill="#FFFFFF" x="44.375" y="3" width="7" height="26"></rect>
                <rect id="Rectangle" fill="#FFFFFF" x="53.25" y="3" width="7" height="26"></rect>
                <rect id="Rectangle" fill="#FFFFFF" x="62.125" y="3" width="7" height="26"></rect>
                <rect id="Rectangle" fill="#FFFFFF" x="71" y="3" width="7" height="26"></rect>
                <rect id="Rectangle-2" fill="#FFFFFF" x="0" y="0" width="78" height="2"></rect>
                <rect id="Rectangle-2" fill="#FFFFFF" x="0" y="30" width="78" height="2"></rect>
                <rect id="Rectangle-3" fill="#FFFFFF" x="77" y="33" width="1" height="8"></rect>
                <circle id="Oval-2" stroke="#FFFFFF" cx="55" cy="39" r="5"></circle>
                <circle id="Oval-2" fill="#D8D8D8" cx="16.5" cy="42.5" r="1.5"></circle>
                <circle id="Oval-2" fill="#FFFFFF" cx="55" cy="39" r="2"></circle>
                <circle id="Oval-2" fill="#FFFFFF" cx="68" cy="39" r="2"></circle>
                <circle id="Oval-2" stroke="#FFFFFF" cx="68" cy="39" r="5"></circle>
                <path d="M43,33 L76,33 L76,39 L73.964566,39 C73.4236952,35 71.4411385,33 68.016896,33 C64.5926534,33 62.5858857,35 61.9965931,39 L61.133943,39 C60.3941367,35 58.3541535,33 55.0139934,33 C51.6738333,33 49.6922307,35 49.0691858,39 L43,39 L43,33 Z" id="Rectangle-4" fill="#FFFFFF"></path>
                <rect id="Rectangle-5" fill="#D8D8D8" x="16" y="32" width="1" height="9"></rect>
            </g>
            <g id="Group-2" transform="translate(310.750000, 94.000000)">
                <g id="noun_679881_cc-copy-3" transform="translate(43.000000, 0.000000)" stroke="#FFFFFF" stroke-linecap="round" stroke-linejoin="round">
                    <path d="M17.112,40.224 C17.112,43.292 14.625,45.779 11.555,45.779 C8.485,45.779 6,43.292 6,40.224 C6,37.152 8.486,34.666 11.556,34.666 C14.626,34.666 17.112,37.151 17.112,40.224 Z" id="Shape"></path>
                    <circle id="Oval" cx="11.556" cy="40.224" r="2.223"></circle>
                    <path d="M30.446,40.224 C30.446,43.292 27.956,45.779 24.888,45.779 C21.819,45.779 19.332,43.293 19.332,40.224 C19.332,37.152 21.818,34.666 24.888,34.666 C27.956,34.666 30.446,37.151 30.446,40.224 Z" id="Shape"></path>
                    <circle id="Oval" cx="24.889" cy="40.224" r="2.223"></circle>
                    <rect id="Rectangle-path" x="0.444" y="0.222" width="35.556" height="33.332"></rect>
                    <rect id="Rectangle-path" x="0.444" y="30.219" width="35.556" height="3.335"></rect>
                    <rect id="Rectangle-path" x="0.444" y="0.222" width="35.556" height="3.335"></rect>
                    <rect id="Rectangle-path" x="33.779" y="33.558" width="2.221" height="8.886"></rect>
                    <path d="M0.444,33.558 L0.444,40.224 L6,40.224 C6,37.152 8.486,34.666 11.556,34.666 C14.626,34.666 17.113,37.151 17.113,40.224 L19.334,40.224 C19.334,37.152 21.82,34.666 24.89,34.666 C27.957,34.666 30.448,37.151 30.448,40.224 L33.779,40.224 L33.779,33.558 L0.444,33.558 L0.444,33.558 Z" id="Shape"></path>
                    <path d="M0.444,3.557 L0.444,30.223 L0.444,3.557 Z" id="Shape"></path>
                    <path d="M9.333,3.557 L9.333,30.223 L9.333,3.557 Z" id="Shape"></path>
                    <path d="M18.221,3.557 L18.221,30.223 L18.221,3.557 Z" id="Shape"></path>
                    <path d="M27.109,3.557 L27.109,30.223 L27.109,3.557 Z" id="Shape"></path>
                </g>
                <g id="Group" transform="translate(0.000000, 1.000000)">
                    <rect id="Rectangle" fill="#FFFFFF" x="0" y="3" width="7" height="26"></rect>
                    <rect id="Rectangle" fill="#FFFFFF" x="8.875" y="3" width="7" height="26"></rect>
                    <rect id="Rectangle" fill="#FFFFFF" x="17.75" y="3" width="7" height="26"></rect>
                    <rect id="Rectangle" fill="#FFFFFF" x="26.625" y="3" width="7" height="26"></rect>
                    <rect id="Rectangle" fill="#FFFFFF" x="35.5" y="3" width="7" height="26"></rect>
                    <rect id="Rectangle-2" fill="#FFFFFF" x="0" y="0" width="43" height="2"></rect>
                    <rect id="Rectangle-2" fill="#FFFFFF" x="0" y="30" width="43" height="2"></rect>
                    <circle id="Oval-2" fill="#D8D8D8" cx="16.5" cy="42.5" r="1.5"></circle>
                    <rect id="Rectangle-5" fill="#D8D8D8" x="16" y="32" width="1" height="9"></rect>
                </g>
            </g>
        </g>
    </g>
</svg>